<svg id="Layer_1" data-name="Layer 1" xmlns="http://www.w3.org/2000/svg" viewBox="0 0 512 512"><path d="M281,7.4c-8.53-8.53-23.47-8.53-32,0C229.8,28.73,71.93,220.73,71.93,318.87a192,192,0,0,0,384,0C455.93,220.73,298.07,28.73,281,7.4ZM263.93,468.2c-83.2,0-149.33-66.13-149.33-149.33,0-64,96-198.4,149.33-264.54,53.34,66.14,149.34,200.54,149.34,264.54C413.27,402.07,347.13,468.2,263.93,468.2Z"/><rect x="174.01" y="275.43" width="181.33" height="42.67" transform="translate(-132.32 274.07) rotate(-45)"/><circle cx="199.93" cy="254.87" r="21.33"/><circle cx="327.93" cy="340.2" r="21.33"/></svg>