<svg id="Layer_1" data-name="Layer 1" xmlns="http://www.w3.org/2000/svg" viewBox="0 0 512 512"><path d="M299.52,347.14V76.8a8.52,8.52,0,0,0-2.51-6,7.31,7.31,0,0,0-6-2.49l-34.14.11a8.53,8.53,0,0,0-8.53,8.53V347.14A59.73,59.73,0,0,0,261.21,459.5a62.23,62.23,0,0,0,12.62,1.32,59.74,59.74,0,0,0,25.69-113.68Zm14.64,68.14a42.65,42.65,0,0,1-13.37,18.93v0a42.64,42.64,0,1,1-41.14-73.28,8.53,8.53,0,0,0,5.74-8V85.42l17.06-.08V352.87a8.56,8.56,0,0,0,5.73,8.06A42.6,42.6,0,0,1,314.16,415.28Z"/><path d="M367.41,341.31a110.88,110.88,0,0,0-33.75-33.75V256h25.6a8.54,8.54,0,1,0,0-17.07h-25.6V221.88h25.6a8.53,8.53,0,1,0,0-17.06h-25.6V187.75h25.6a8.54,8.54,0,1,0,0-17.07h-25.6V153.61h25.6a8.54,8.54,0,1,0,0-17.07h-25.6V119.48h25.6a8.54,8.54,0,1,0,0-17.07h-25.6V59.74a59.74,59.74,0,1,0-119.47,0V307.56a110.94,110.94,0,1,0,153.22,33.75ZM273.92,495A93.87,93.87,0,0,1,227,319.74a8.54,8.54,0,0,0,4.26-7.39V59.74a42.67,42.67,0,1,1,85.34,0V312.35a8.55,8.55,0,0,0,4.27,7.39A93.87,93.87,0,0,1,273.92,495Z"/></svg>