<svg id="Layer_1" data-name="Layer 1" xmlns="http://www.w3.org/2000/svg" viewBox="0 0 512 512"><path d="M405.05,76.29A107.28,107.28,0,0,0,338.1,99.85a15,15,0,1,0,18.78,23.39,76.95,76.95,0,1,1,48.17,137H123a15,15,0,0,0,0,30H405.05a107,107,0,0,0,0-213.9Z"/><path d="M94.26,230.29H254.5a15,15,0,0,0,0-30H94.26a15,15,0,0,0,0,30Z"/><path d="M250.29,320.29H15a15,15,0,0,0,0,30H250.29a61.71,61.71,0,1,1-38.62,109.83,15,15,0,1,0-18.79,23.39A91.71,91.71,0,1,0,250.3,320.29Z"/><path d="M15,230.29H35.24a15,15,0,1,0,0-30H15a15,15,0,0,0,0,30Z"/><path d="M196,395a15,15,0,0,0-15-15H91a15,15,0,0,0,0,30h90A15,15,0,0,0,196,395Z"/></svg>